<svg width="24" height="24" viewBox="0 0 24 24" fill="none" xmlns="http://www.w3.org/2000/svg">
<path d="M11.9977 2.16052C15.2033 2.16052 15.5829 2.17457 16.8436 2.23081C18.0152 2.28237 18.6479 2.4792 19.0697 2.64323C19.6274 2.85882 20.0305 3.12126 20.4476 3.53837C20.8694 3.96016 21.1271 4.35852 21.3427 4.91623C21.5067 5.33802 21.7036 5.97539 21.7551 7.14235C21.8114 8.40773 21.8254 8.78735 21.8254 11.9883C21.8254 15.1939 21.8114 15.5735 21.7551 16.8342C21.7036 18.0059 21.5067 18.6385 21.3427 19.0603C21.1271 19.618 20.8647 20.0211 20.4476 20.4382C20.0258 20.86 19.6274 21.1178 19.0697 21.3333C18.6479 21.4974 18.0105 21.6942 16.8436 21.7458C15.5782 21.802 15.1986 21.816 11.9977 21.816C8.79203 21.816 8.41242 21.802 7.15173 21.7458C5.98008 21.6942 5.34739 21.4974 4.9256 21.3333C4.3679 21.1178 3.96485 20.8553 3.54774 20.4382C3.12595 20.0164 2.86819 19.618 2.65261 19.0603C2.48858 18.6385 2.29174 18.0012 2.24019 16.8342C2.18395 15.5688 2.16989 15.1892 2.16989 11.9883C2.16989 8.78266 2.18395 8.40304 2.24019 7.14235C2.29174 5.97071 2.48858 5.33802 2.65261 4.91623C2.86819 4.35852 3.13064 3.95548 3.54774 3.53837C3.96954 3.11658 4.3679 2.85882 4.9256 2.64323C5.34739 2.4792 5.98477 2.28237 7.15173 2.23081C8.41242 2.17457 8.79203 2.16052 11.9977 2.16052ZM11.9977 0C8.74048 0 8.33275 0.0140598 7.05331 0.0702988C5.77856 0.126538 4.90217 0.332747 4.14294 0.628002C3.35091 0.937317 2.68073 1.34505 2.01523 2.01523C1.34505 2.68073 0.937317 3.35091 0.628002 4.13825C0.332747 4.90217 0.126538 5.77387 0.0702988 7.04862C0.0140598 8.33275 0 8.74048 0 11.9977C0 15.2548 0.0140598 15.6626 0.0702988 16.942C0.126538 18.2168 0.332747 19.0931 0.628002 19.8524C0.937317 20.6444 1.34505 21.3146 2.01523 21.9801C2.68073 22.6456 3.35091 23.058 4.13825 23.3626C4.90217 23.6579 5.77387 23.8641 7.04862 23.9203C8.32806 23.9766 8.73579 23.9906 11.993 23.9906C15.2501 23.9906 15.6579 23.9766 16.9373 23.9203C18.2121 23.8641 19.0885 23.6579 19.8477 23.3626C20.635 23.058 21.3052 22.6456 21.9707 21.9801C22.6362 21.3146 23.0486 20.6444 23.3532 19.8571C23.6485 19.0931 23.8547 18.2214 23.911 16.9467C23.9672 15.6673 23.9813 15.2595 23.9813 12.0023C23.9813 8.74517 23.9672 8.33743 23.911 7.058C23.8547 5.78325 23.6485 4.90685 23.3532 4.14763C23.058 3.35091 22.6503 2.68073 21.9801 2.01523C21.3146 1.34974 20.6444 0.937317 19.8571 0.632689C19.0931 0.337434 18.2214 0.131224 16.9467 0.0749853C15.6626 0.0140598 15.2548 0 11.9977 0Z" fill="#0F1F3D"/>
<path d="M11.9978 5.83496C8.59536 5.83496 5.83496 8.59536 5.83496 11.9978C5.83496 15.4003 8.59536 18.1607 11.9978 18.1607C15.4003 18.1607 18.1607 15.4003 18.1607 11.9978C18.1607 8.59536 15.4003 5.83496 11.9978 5.83496ZM11.9978 15.9955C9.79044 15.9955 8.00016 14.2052 8.00016 11.9978C8.00016 9.79044 9.79044 8.00016 11.9978 8.00016C14.2052 8.00016 15.9955 9.79044 15.9955 11.9978C15.9955 14.2052 14.2052 15.9955 11.9978 15.9955Z" fill="#0F1F3D"/>
<path d="M19.8429 5.59113C19.8429 6.38785 19.1961 7.02991 18.4041 7.02991C17.6074 7.02991 16.9653 6.38316 16.9653 5.59113C16.9653 4.79441 17.6121 4.15234 18.4041 4.15234C19.1961 4.15234 19.8429 4.79909 19.8429 5.59113Z" fill="#0F1F3D"/>
</svg>
