<svg width="30" height="25" viewBox="0 0 30 25" fill="none" xmlns="http://www.w3.org/2000/svg">
<rect y="0.505859" width="30" height="4" rx="2" fill="white" fill-opacity="0.7"/>
<rect y="10.5059" width="16" height="4" rx="2" fill="white" fill-opacity="0.7"/>
<path fill-rule="evenodd" clip-rule="evenodd" d="M26 9.50586C26 8.40129 25.1046 7.50586 24 7.50586C22.8954 7.50586 22 8.40129 22 9.50586V10.5059H21C19.8954 10.5059 19 11.4013 19 12.5059C19 13.6104 19.8954 14.5059 21 14.5059H22V15.5059C22 16.6104 22.8954 17.5059 24 17.5059C25.1046 17.5059 26 16.6104 26 15.5059V14.5059H27C28.1046 14.5059 29 13.6104 29 12.5059C29 11.4013 28.1046 10.5059 27 10.5059H26V9.50586Z" fill="white" fill-opacity="0.7"/>
<rect y="20.5059" width="30" height="4" rx="2" fill="white" fill-opacity="0.7"/>
</svg>
