<svg width="27" height="27" viewBox="0 0 27 27" fill="none" xmlns="http://www.w3.org/2000/svg">
<path d="M13.2917 0.447266C6.11224 0.447266 0.291992 6.28901 0.291992 13.495C0.291992 19.6139 4.48935 24.7484 10.1515 26.1586V17.4824H7.47097V13.495H10.1515V11.7769C10.1515 7.33596 12.154 5.27754 16.498 5.27754C17.3217 5.27754 18.7428 5.43986 19.3241 5.60165V9.21588C19.0173 9.18352 18.4843 9.16734 17.8224 9.16734C15.691 9.16734 14.8673 9.97787 14.8673 12.0848V13.495H19.1135L18.384 17.4824H14.8673V26.4473C21.3043 25.667 26.292 20.1661 26.292 13.495C26.2915 6.28901 20.4712 0.447266 13.2917 0.447266Z" fill="white"/>
</svg>
