<svg width="26" height="26" viewBox="0 0 26 26" fill="none" xmlns="http://www.w3.org/2000/svg">
<path d="M12.9997 0C5.82024 0 0 5.84174 0 13.0478C0 19.1666 4.19736 24.3012 9.85952 25.7114V17.0351H7.17898V13.0478H9.85952V11.3296C9.85952 6.88869 11.862 4.83028 16.206 4.83028C17.0297 4.83028 18.4508 4.99259 19.0321 5.15439V8.76861C18.7253 8.73625 18.1924 8.72008 17.5304 8.72008C15.399 8.72008 14.5753 9.5306 14.5753 11.6376V13.0478H18.8215L18.092 17.0351H14.5753V26C21.0123 25.2197 26 19.7188 26 13.0478C25.9995 5.84174 20.1792 0 12.9997 0Z" fill="#0F1F3D"/>
</svg>
