<svg width="25" height="25" viewBox="0 0 25 25" fill="none" xmlns="http://www.w3.org/2000/svg">
<path d="M12.2896 2.60778C15.4953 2.60778 15.8749 2.62184 17.1356 2.67808C18.3072 2.72963 18.9399 2.92647 19.3617 3.0905C19.9194 3.30608 20.3225 3.56853 20.7396 3.98564C21.1614 4.40743 21.4191 4.80579 21.6347 5.36349C21.7987 5.78528 21.9956 6.42266 22.0471 7.58962C22.1034 8.855 22.1174 9.23461 22.1174 12.4355C22.1174 15.6412 22.1034 16.0208 22.0471 17.2815C21.9956 18.4531 21.7987 19.0858 21.6347 19.5076C21.4191 20.0653 21.1567 20.4684 20.7396 20.8855C20.3178 21.3073 19.9194 21.565 19.3617 21.7806C18.9399 21.9446 18.3025 22.1415 17.1356 22.193C15.8702 22.2493 15.4906 22.2633 12.2896 22.2633C9.08402 22.2633 8.70441 22.2493 7.44372 22.193C6.27207 22.1415 5.63939 21.9446 5.21759 21.7806C4.65989 21.565 4.25684 21.3026 3.83974 20.8855C3.41794 20.4637 3.16018 20.0653 2.9446 19.5076C2.78057 19.0858 2.58373 18.4484 2.53218 17.2815C2.47594 16.0161 2.46188 15.6365 2.46188 12.4355C2.46188 9.22992 2.47594 8.85031 2.53218 7.58962C2.58373 6.41797 2.78057 5.78528 2.9446 5.36349C3.16018 4.80579 3.42263 4.40274 3.83974 3.98564C4.26153 3.56384 4.65989 3.30608 5.21759 3.0905C5.63939 2.92647 6.27676 2.72963 7.44372 2.67808C8.70441 2.62184 9.08402 2.60778 12.2896 2.60778ZM12.2896 0.447266C9.03247 0.447266 8.62474 0.461325 7.3453 0.517564C6.07055 0.573803 5.19416 0.780013 4.43493 1.07527C3.6429 1.38458 2.97272 1.79232 2.30722 2.4625C1.63704 3.12799 1.22931 3.79817 0.919994 4.58552C0.62474 5.34943 0.41853 6.22114 0.362291 7.49589C0.306052 8.78001 0.291992 9.18775 0.291992 12.4449C0.291992 15.7021 0.306052 16.1098 0.362291 17.3893C0.41853 18.664 0.62474 19.5404 0.919994 20.2996C1.22931 21.0917 1.63704 21.7619 2.30722 22.4273C2.97272 23.0928 3.6429 23.5053 4.43025 23.8099C5.19416 24.1051 6.06586 24.3114 7.34061 24.3676C8.62005 24.4238 9.02779 24.4379 12.285 24.4379C15.5421 24.4379 15.9499 24.4238 17.2293 24.3676C18.5041 24.3114 19.3805 24.1051 20.1397 23.8099C20.927 23.5053 21.5972 23.0928 22.2627 22.4273C22.9282 21.7619 23.3406 21.0917 23.6452 20.3043C23.9405 19.5404 24.1467 18.6687 24.2029 17.394C24.2592 16.1145 24.2732 15.7068 24.2732 12.4496C24.2732 9.19243 24.2592 8.7847 24.2029 7.50526C24.1467 6.23051 23.9405 5.35412 23.6452 4.59489C23.35 3.79817 22.9423 3.12799 22.2721 2.4625C21.6066 1.797 20.9364 1.38458 20.149 1.07995C19.3851 0.7847 18.5134 0.57849 17.2387 0.522251C15.9546 0.461325 15.5468 0.447266 12.2896 0.447266Z" fill="white"/>
<path d="M12.2898 6.28223C8.88735 6.28223 6.12695 9.04262 6.12695 12.4451C6.12695 15.8475 8.88735 18.6079 12.2898 18.6079C15.6923 18.6079 18.4527 15.8475 18.4527 12.4451C18.4527 9.04262 15.6923 6.28223 12.2898 6.28223ZM12.2898 16.4427C10.0824 16.4427 8.29215 14.6525 8.29215 12.4451C8.29215 10.2377 10.0824 8.44743 12.2898 8.44743C14.4972 8.44743 16.2875 10.2377 16.2875 12.4451C16.2875 14.6525 14.4972 16.4427 12.2898 16.4427Z" fill="white"/>
<path d="M20.1349 6.03839C20.1349 6.83511 19.4881 7.47718 18.6961 7.47718C17.8994 7.47718 17.2573 6.83043 17.2573 6.03839C17.2573 5.24167 17.9041 4.59961 18.6961 4.59961C19.4881 4.59961 20.1349 5.24636 20.1349 6.03839Z" fill="white"/>
</svg>
