<svg width="18" height="18" viewBox="0 0 18 18" fill="none" xmlns="http://www.w3.org/2000/svg">
<path d="M13.5 0H4.5C2.0187 0 0 2.0187 0 4.5V13.5C0 15.9813 2.0187 18 4.5 18H5.2H9H10.5H13.5C15.9813 18 18 15.9813 18 13.5V4.5C18 2.0187 15.9813 0 13.5 0ZM6 12.75C6 13.1642 5.6642 13.5 5.25 13.5C4.8358 13.5 4.5 13.1642 4.5 12.75V7.4322C4.5 7.018 4.8358 6.6822 5.25 6.6822C5.6642 6.6822 6 7.018 6 7.4322V12.75ZM6 5.1C6 5.5142 5.6642 5.85 5.25 5.85C4.8358 5.85 4.5 5.5142 4.5 5.1V4.95C4.5 4.5358 4.8358 4.2 5.25 4.2C5.6642 4.2 6 4.5358 6 4.95V5.1ZM13.5 12.75C13.5 13.1642 13.1642 13.5 12.75 13.5C12.3358 13.5 12 13.1642 12 12.75V9.5363C12 8.8231 11.7042 8.3559 11.1886 8.2546C10.5039 8.1201 9.5417 8.6425 9.0271 9.9012C9.0196 9.9194 9.0087 9.9349 9 9.9521V12.75C9 13.1642 8.6642 13.5 8.25 13.5C7.8358 13.5 7.5 13.1642 7.5 12.75V7.5012C7.5 7.087 7.8358 6.7512 8.25 6.7512C8.652 6.7512 8.9775 7.0684 8.9964 7.4657C9.8026 6.8311 10.7281 6.6353 11.4778 6.7826C12.7063 7.0241 13.5 8.1049 13.5 9.5363V12.75Z" fill="white"/>
</svg>
