<svg width="271" height="33" viewBox="0 0 271 33" fill="none" xmlns="http://www.w3.org/2000/svg">
<path d="M52.368 7.69902H58.032V24.499H52.368V7.69902ZM71.8706 15.643H76.7906V22.747C75.7986 23.435 74.6466 23.963 73.3346 24.331C72.0226 24.699 70.7346 24.883 69.4706 24.883C67.6786 24.883 66.0706 24.515 64.6466 23.779C63.2226 23.027 62.1026 21.987 61.2866 20.659C60.4866 19.315 60.0866 17.795 60.0866 16.099C60.0866 14.403 60.4866 12.891 61.2866 11.563C62.1026 10.219 63.2306 9.17902 64.6706 8.44302C66.1266 7.69102 67.7666 7.31502 69.5906 7.31502C71.2386 7.31502 72.7106 7.59502 74.0066 8.15502C75.3186 8.69902 76.4066 9.49902 77.2706 10.555L73.6466 13.747C72.5906 12.515 71.3346 11.899 69.8786 11.899C68.6306 11.899 67.6386 12.275 66.9026 13.027C66.1666 13.779 65.7986 14.803 65.7986 16.099C65.7986 17.363 66.1586 18.379 66.8786 19.147C67.6146 19.915 68.5906 20.299 69.8066 20.299C70.5266 20.299 71.2146 20.163 71.8706 19.891V15.643ZM95.7639 7.69902V24.499H91.1079L84.7239 16.867V24.499H79.2039V7.69902H83.8599L90.2439 15.331V7.69902H95.7639ZM109.941 21.571H103.557L102.429 24.499H96.669L104.013 7.69902H109.581L116.925 24.499H111.069L109.941 21.571ZM108.381 17.491L106.749 13.267L105.117 17.491H108.381ZM120.633 12.091H115.713V7.69902H131.217V12.091H126.297V24.499H120.633V12.091ZM146.656 20.227V24.499H132.688V7.69902H146.344V11.971H138.256V13.939H145.36V18.019H138.256V20.227H146.656ZM166.554 7.69902L159.45 24.499H153.882L146.778 7.69902H152.874L156.882 17.515L160.986 7.69902H166.554ZM188.633 20.227V24.499H174.665V7.69902H188.321V11.971H180.233V13.939H187.337V18.019H180.233V20.227H188.633ZM197.077 24.883C195.685 24.883 194.325 24.731 192.997 24.427C191.685 24.107 190.605 23.683 189.757 23.155L191.581 19.027C192.381 19.491 193.277 19.867 194.269 20.155C195.261 20.427 196.213 20.563 197.125 20.563C197.909 20.563 198.469 20.491 198.805 20.347C199.141 20.187 199.309 19.955 199.309 19.651C199.309 19.299 199.085 19.035 198.637 18.859C198.205 18.683 197.485 18.491 196.477 18.283C195.181 18.011 194.101 17.723 193.237 17.419C192.373 17.099 191.621 16.587 190.981 15.883C190.341 15.163 190.021 14.195 190.021 12.979C190.021 11.923 190.317 10.963 190.909 10.099C191.501 9.23502 192.381 8.55502 193.549 8.05902C194.733 7.56302 196.165 7.31502 197.845 7.31502C198.997 7.31502 200.125 7.44302 201.229 7.69902C202.349 7.93902 203.333 8.29902 204.181 8.77902L202.477 12.883C200.829 12.051 199.269 11.635 197.797 11.635C196.341 11.635 195.613 11.987 195.613 12.691C195.613 13.027 195.829 13.283 196.261 13.459C196.693 13.619 197.405 13.795 198.397 13.987C199.677 14.227 200.757 14.507 201.637 14.827C202.517 15.131 203.277 15.635 203.917 16.339C204.573 17.043 204.901 18.003 204.901 19.219C204.901 20.275 204.605 21.235 204.013 22.099C203.421 22.947 202.533 23.627 201.349 24.139C200.181 24.635 198.757 24.883 197.077 24.883ZM210 12.091H205.08V7.69902H220.584V12.091H215.664V24.499H210V12.091ZM232.66 21.571H226.276L225.148 24.499H219.388L226.732 7.69902H232.3L239.644 24.499H233.788L232.66 21.571ZM231.1 17.491L229.468 13.267L227.836 17.491H231.1ZM243.352 12.091H238.432V7.69902H253.936V12.091H249.016V24.499H243.352V12.091ZM269.375 20.227V24.499H255.407V7.69902H269.063V11.971H260.975V13.939H268.079V18.019H260.975V20.227H269.375Z" fill="#0F1F3D"/>
<path d="M0 32.499L0 0.499023L32 0.499023V32.499L0 32.499ZM5.57551 29.0601C5.75515 29.0736 5.86092 29.0887 5.96585 29.0887C13.3654 29.0895 20.765 29.0887 28.1646 29.0954C28.492 29.0954 28.5969 29.0039 28.5969 28.6682C28.5885 21.2683 28.5911 13.8685 28.5894 6.46776C28.5894 6.35612 28.5684 6.24449 28.5508 6.0657C28.3946 6.20839 28.2998 6.28813 28.2125 6.37543C26.7972 7.78892 25.3878 9.20913 23.9641 10.6134C23.7249 10.8492 23.6351 11.0927 23.6359 11.4251C23.6451 15.4817 23.6418 19.5384 23.6418 23.595C23.6418 23.7688 23.6418 23.9425 23.6418 24.1398C23.3799 24.1398 23.1994 24.1398 23.0181 24.1398C18.9754 24.1398 14.9327 24.1423 10.8908 24.1347C10.5903 24.1347 10.3661 24.2111 10.1496 24.4294C8.72338 25.8714 7.28459 27.3017 5.85168 28.737C5.76858 28.8201 5.69723 28.9158 5.57467 29.0593L5.57551 29.0601ZM8.35907 8.85743C8.59831 8.85743 8.7771 8.85743 8.95506 8.85743C12.7736 8.85743 16.5922 8.86163 20.4116 8.84736C20.6374 8.84736 20.9237 8.76426 21.0781 8.61402C22.5681 7.15688 24.0363 5.67707 25.5087 4.20231C25.5775 4.13348 25.6254 4.04451 25.7101 3.92783C25.5716 3.9186 25.5028 3.90937 25.4331 3.90937C18.2291 3.90937 11.0251 3.91105 3.82194 3.90181C3.47189 3.90181 3.40558 4.03276 3.40558 4.345C3.41229 11.5207 3.41061 18.6973 3.41229 25.8731C3.41229 25.9729 3.43748 26.0728 3.45846 26.2315C3.6104 26.0905 3.71365 25.9998 3.81102 25.9024C5.21623 24.4982 6.61557 23.0889 8.02917 21.693C8.26673 21.4588 8.36662 21.2213 8.36578 20.8856C8.35571 17.0807 8.35907 13.2759 8.35907 9.47101C8.35907 9.29055 8.35907 9.11008 8.35907 8.85743Z" fill="#0F1F3D"/>
</svg>
