<svg width="32" height="31" viewBox="0 0 32 31" fill="none" xmlns="http://www.w3.org/2000/svg">
<path d="M0.974609 31L0.974609 0L31.9565 0L31.9565 31L0.974609 31ZM6.37273 27.6686C6.54665 27.6816 6.64905 27.6962 6.75064 27.6962C13.9148 27.697 21.079 27.6962 28.2431 27.7027C28.5601 27.7027 28.6617 27.6141 28.6617 27.2888C28.6536 20.1202 28.656 12.9516 28.6544 5.78221C28.6544 5.67406 28.6341 5.56592 28.617 5.39272C28.4658 5.53095 28.374 5.6082 28.2895 5.69277C26.9192 7.06209 25.5547 8.43791 24.1763 9.79829C23.9446 10.0268 23.8577 10.2626 23.8585 10.5846C23.8674 14.5145 23.8642 18.4444 23.8642 22.3743C23.8642 22.5426 23.8642 22.7109 23.8642 22.902C23.6106 22.902 23.4359 22.902 23.2603 22.902C19.3462 22.902 15.4322 22.9044 11.5189 22.8971C11.2279 22.8971 11.0109 22.9711 10.8013 23.1825C9.42044 24.5795 8.02743 25.9651 6.64011 27.3555C6.55965 27.436 6.49057 27.5287 6.37191 27.6678L6.37273 27.6686ZM9.06772 8.09721C9.29935 8.09721 9.47246 8.09721 9.64475 8.09721C13.3418 8.09721 17.0389 8.10127 20.7368 8.08745C20.9554 8.08745 21.2326 8.00695 21.3821 7.8614C22.8247 6.4498 24.2462 5.01624 25.6717 3.58756C25.7383 3.52088 25.7847 3.43469 25.8667 3.32166C25.7326 3.31272 25.666 3.30377 25.5985 3.30377C18.6237 3.30377 11.6489 3.3054 4.67494 3.29645C4.33604 3.29645 4.27183 3.4233 4.27183 3.72579C4.27833 10.6773 4.27671 17.6296 4.27833 24.5811C4.27833 24.6779 4.30272 24.7746 4.32303 24.9283C4.47014 24.7917 4.5701 24.7039 4.66438 24.6096C6.02488 23.2492 7.37969 21.8839 8.74832 20.5317C8.97832 20.3048 9.07504 20.0747 9.07422 19.7495C9.06447 16.0635 9.06772 12.3776 9.06772 8.69161C9.06772 8.51679 9.06772 8.34196 9.06772 8.09721Z" fill="#F4F4F4"/>
</svg>
