<svg width="53" height="54" viewBox="0 0 53 54" fill="none" xmlns="http://www.w3.org/2000/svg">
<path d="M0.978516 53.383L0.978516 0.359375L52.5199 0.359375L52.5199 53.383L0.978516 53.383ZM9.95882 47.6849C10.2482 47.7071 10.4185 47.7321 10.5875 47.7321C22.5058 47.7335 34.4241 47.7321 46.3424 47.7433C46.8697 47.7433 47.0387 47.5917 47.0387 47.0353C47.0252 34.7739 47.0293 22.5124 47.0266 10.2495C47.0266 10.0645 46.9928 9.87955 46.9644 9.5833C46.7129 9.81974 46.5601 9.95187 46.4195 10.0965C44.1399 12.4387 41.8699 14.7919 39.5768 17.1188C39.1914 17.5096 39.0468 17.9129 39.0481 18.4637C39.063 25.1855 39.0576 31.9074 39.0576 38.6292C39.0576 38.9171 39.0576 39.205 39.0576 39.5319C38.6358 39.5319 38.3451 39.5319 38.053 39.5319C31.5416 39.5319 25.0301 39.536 18.52 39.5235C18.036 39.5235 17.675 39.6501 17.3261 40.0117C15.029 42.4011 12.7116 44.7711 10.4036 47.1494C10.2698 47.2871 10.1549 47.4456 9.95747 47.6835L9.95882 47.6849ZM14.4422 14.2092C14.8275 14.2092 15.1155 14.2092 15.4022 14.2092C21.5526 14.2092 27.7031 14.2161 33.8549 14.1925C34.2186 14.1925 34.6797 14.0548 34.9284 13.8058C37.3283 11.3914 39.6931 8.93935 42.0645 6.49568C42.1754 6.38163 42.2525 6.2342 42.389 6.04088C42.166 6.02558 42.0551 6.01028 41.9429 6.01028C30.3396 6.01028 18.7363 6.01306 7.13439 5.99777C6.57059 5.99777 6.46377 6.21473 6.46377 6.73212C6.47459 18.6222 6.47189 30.5138 6.47459 42.4039C6.47459 42.5694 6.51515 42.7349 6.54895 42.9978C6.79367 42.7641 6.95998 42.6139 7.11681 42.4526C9.38014 40.1257 11.634 37.7906 13.9109 35.4776C14.2935 35.0896 14.4544 34.696 14.453 34.1396C14.4368 27.8351 14.4422 21.5305 14.4422 15.2259C14.4422 14.9268 14.4422 14.6278 14.4422 14.2092Z" fill="#0F1F3D"/>
</svg>
