<svg width="29" height="22" viewBox="0 0 29 22" fill="none" xmlns="http://www.w3.org/2000/svg">
<path fill-rule="evenodd" clip-rule="evenodd" d="M25.7232 0.447266C26.5622 0.447266 27.3072 0.838702 27.776 1.44416L14.1608 12.5575L0.666989 1.64596C1.11816 0.927094 1.9319 0.447266 2.8608 0.447266H25.7232ZM0.291992 18.9473V3.61798L9.9742 11.4473L0.311951 19.2604C0.298781 19.1578 0.291992 19.0533 0.291992 18.9473ZM1.17749 20.8358C1.62832 21.2167 2.21689 21.4473 2.8608 21.4473H25.7232C26.2766 21.4473 26.7892 21.2769 27.2086 20.9872L16.9201 12.5893L15.0699 14.0995C14.5467 14.5266 13.7844 14.5283 13.2591 14.1035L11.3811 12.5849L1.17749 20.8358ZM18.3192 11.4473L28.2218 19.5302C28.2677 19.3432 28.292 19.148 28.292 18.9473V3.30702L18.3192 11.4473Z" fill="white"/>
</svg>
