<svg width="28" height="21" viewBox="0 0 28 21" fill="none" xmlns="http://www.w3.org/2000/svg">
<path fill-rule="evenodd" clip-rule="evenodd" d="M25.4312 0C26.2702 0 27.0152 0.391437 27.484 0.996892L13.8689 12.1102L0.374997 1.1987C0.826168 0.479829 1.63991 0 2.56881 0H25.4312ZM0 18.5V3.17071L9.6822 11L0.0199591 18.8131C0.0067889 18.7106 0 18.6061 0 18.5ZM0.885497 20.3885C1.33632 20.7694 1.9249 21 2.56881 21H25.4312C25.9846 21 26.4972 20.8297 26.9166 20.5399L16.6281 12.142L14.7779 13.6522C14.2547 14.0793 13.4924 14.081 12.9671 13.6563L11.0891 12.1376L0.885497 20.3885ZM18.0272 11L27.9298 19.0829C27.9757 18.8959 28 18.7007 28 18.5V2.85975L18.0272 11Z" fill="#0F1F3D"/>
</svg>
