<svg width="24" height="5" viewBox="0 0 24 5" fill="none" xmlns="http://www.w3.org/2000/svg">
<path d="M0.467285 4.27441C0.435059 3.99512 0.413574 3.72119 0.402832 3.45264C0.39209 3.18408 0.386719 2.91016 0.386719 2.63086C0.386719 2.3623 0.39209 2.09375 0.402832 1.8252C0.413574 1.5459 0.435059 1.2666 0.467285 0.987305C0.757324 1.04102 1.19775 1.08936 1.78857 1.13232C2.39014 1.16455 3.06689 1.19141 3.81885 1.21289C4.58154 1.23438 5.33887 1.25049 6.09082 1.26123C7.59473 1.28271 8.86768 1.29883 9.90967 1.30957C10.9517 1.30957 11.5908 1.30957 11.8271 1.30957C12.2891 1.30957 13.041 1.3042 14.083 1.29346C15.125 1.28271 16.3281 1.26123 17.6924 1.229C18.4551 1.21826 19.2178 1.20215 19.9805 1.18066C20.7539 1.15918 21.436 1.13232 22.0269 1.1001C22.6284 1.05713 23.0366 1.01953 23.2515 0.987305C23.2837 1.20215 23.3052 1.50293 23.3159 1.88965C23.3267 2.26562 23.332 2.5127 23.332 2.63086C23.332 2.85645 23.3213 3.13574 23.2998 3.46875C23.2891 3.80176 23.2729 4.07031 23.2515 4.27441C22.897 4.2207 22.2095 4.17236 21.189 4.12939C20.1685 4.08643 18.9546 4.04883 17.5474 4.0166C16.1509 3.99512 14.937 3.979 13.9058 3.96826C12.8745 3.95752 12.1816 3.95215 11.8271 3.95215C11.29 3.95215 10.6724 3.95752 9.97412 3.96826C9.28662 3.979 8.59375 3.98975 7.89551 4.00049C7.19727 4.01123 6.57959 4.02197 6.04248 4.03271C5.36572 4.04346 4.63525 4.05957 3.85107 4.08105C3.06689 4.10254 2.35791 4.12939 1.72412 4.16162C1.10107 4.19385 0.682129 4.23145 0.467285 4.27441Z" fill="#0F1F3D"/>
</svg>
