<svg width="24" height="24" viewBox="0 0 24 24" fill="none" xmlns="http://www.w3.org/2000/svg">
<path d="M5.66953 8.53014C7.51427 13.5626 9.42405 15.5705 14.2825 17.7091L12.177 20.6662C6.59796 17.9952 3.81916 13.4927 2.51043 9.97911L5.66953 8.53014Z" fill="white"/>
<path d="M7.21682 1.58243C8.20325 1.57857 8.95328 2.39938 8.88604 3.32881C8.78022 4.79142 8.89288 5.84667 9.19623 7.15469C9.36286 7.87319 8.98589 8.60293 8.38682 9.07296C7.57938 9.70649 6.9625 10.5137 6.47222 11.2086C5.79268 12.1718 3.4541 12.1026 2.93692 11.0533C1.87404 8.89689 1.15373 4.924 2.70584 2.23984C2.94964 1.81822 3.44053 1.5972 3.94919 1.59521L7.21682 1.58243Z" fill="white"/>
<path d="M22.1906 17.5395C22.3132 16.6152 21.5406 15.8133 20.5555 15.7645C19.0053 15.6879 17.9096 15.4553 16.5712 15.0136C15.8359 14.771 15.0235 15.0367 14.4574 15.5418C13.6943 16.2226 12.7716 16.7039 11.9821 17.08C10.888 17.6013 10.6795 19.8021 11.7202 20.4132C13.8592 21.669 17.9488 22.8221 20.957 21.6898C21.4295 21.5119 21.7209 21.0782 21.7842 20.6016L22.1906 17.5395Z" fill="white"/>
</svg>
