<svg width="55" height="55" viewBox="0 0 55 55" fill="none" xmlns="http://www.w3.org/2000/svg">
<circle cx="27.292" cy="27.4473" r="27" fill="#0F1F3D"/>
<rect x="23.3704" y="30.8975" width="3.62679" height="7.7769" rx="1.8134" transform="rotate(30 23.3704 30.8975)" fill="white"/>
<path d="M37.3463 25.9837C37.3463 30.791 33.2933 34.688 28.2938 34.688C23.2942 34.688 19.2412 30.791 19.2412 25.9837C19.2412 21.1764 23.2942 17.2793 28.2938 17.2793C33.2933 17.2793 37.3463 21.1764 37.3463 25.9837ZM22.4639 25.9837C22.4639 29.0796 25.074 31.5893 28.2938 31.5893C31.5135 31.5893 34.1236 29.0796 34.1236 25.9837C34.1236 22.8878 31.5135 20.3781 28.2938 20.3781C25.074 20.3781 22.4639 22.8878 22.4639 25.9837Z" fill="white"/>
</svg>
