<svg width="20" height="18" viewBox="0 0 20 18" fill="none" xmlns="http://www.w3.org/2000/svg">
<path d="M18.969 1.5292L16.1169 16.2431L16.104 16.2764C16.102 16.2816 15.97 16.6119 15.6568 16.8662C15.4504 17.0334 15.1326 17.1334 14.8067 17.1334C14.5774 17.1333 14.352 17.0853 14.137 16.9904L14.0998 16.9743L10.9983 14.5778C10.7789 14.4083 10.5056 14.3149 10.229 14.3149C9.91341 14.3149 9.61111 14.4327 9.37791 14.6465L7.69961 16.1857L7.68571 16.1966C7.68541 16.1966 7.48081 16.3443 7.21571 16.3443C7.14591 16.3443 7.07631 16.3339 7.00901 16.3133L6.97971 16.3043C6.97971 16.3043 6.97771 16.304 6.97561 16.3037L7.25001 12.7364C7.30781 11.9856 7.64011 11.2824 8.18351 10.7612L11.9732 7.1262C12.3319 6.7821 11.8947 6.2123 11.4695 6.4697L4.73881 10.5435L0.880009 9.2346C0.814709 9.2074 0.665909 9.1395 0.514209 9.0306C0.209509 8.8129 0.0433093 8.5585 0.00550926 8.2521C-0.0223907 8.0332 0.0604094 7.8187 0.147309 7.6903C0.258909 7.5254 0.388209 7.4296 0.475909 7.372C0.676009 7.2336 0.864909 7.1585 0.918209 7.1386L0.936109 7.1315C1.19911 7.0199 5.04651 5.3862 8.95801 3.7272L14.6066 1.3311L15.4752 0.9641C16.477 0.5407 17.1615 0.2515 17.3874 0.1592L17.4286 0.1437C17.5723 0.0875001 17.7886 0.0115002 18.0066 0.0012002C18.0234 0.000400199 18.0403 0 18.0575 0C18.2439 0 18.4153 0.0485 18.5815 0.1482C18.7638 0.2569 18.9258 0.478 18.9858 0.6991C19.0485 0.9306 19.0432 1.1945 18.969 1.5292Z" fill="white"/>
</svg>
