<svg width="26" height="26" viewBox="0 0 26 26" fill="none" xmlns="http://www.w3.org/2000/svg">
<path d="M0 26L1.83631 19.3234C0.703173 17.3691 0.107762 15.1537 0.10885 12.8819C0.112116 5.77958 5.91928 0 13.0544 0C16.517 0.00108333 19.7672 1.34333 22.212 3.77867C24.6557 6.214 26.0011 9.451 26 12.8938C25.9967 19.9973 20.1896 25.7768 13.0544 25.7768C10.8883 25.7758 8.75375 25.2352 6.86302 24.2082L0 26ZM7.18086 21.8758C9.00519 22.9537 10.7468 23.5993 13.0501 23.6004C18.9802 23.6004 23.811 18.7969 23.8143 12.8917C23.8165 6.9745 19.0085 2.1775 13.0588 2.17533C7.12426 2.17533 2.29674 6.97883 2.29457 12.883C2.29348 15.2934 3.00318 17.0982 4.19509 18.9865L3.10768 22.9385L7.18086 21.8758ZM19.5756 15.9564C19.4951 15.8221 19.2796 15.7419 18.9552 15.5805C18.6319 15.4191 17.0416 14.6402 16.7444 14.5329C16.4484 14.4257 16.2329 14.3715 16.0162 14.6943C15.8007 15.0161 15.1803 15.7419 14.992 15.9564C14.8036 16.1709 14.6142 16.198 14.291 16.0366C13.9677 15.8752 12.9249 15.5361 11.6894 14.4387C10.7283 13.585 10.0785 12.5309 9.89014 12.2081C9.70183 11.8863 9.87055 11.7119 10.0316 11.5516C10.1775 11.4075 10.3549 11.1757 10.5171 10.9872C10.6815 10.8008 10.7348 10.6665 10.8437 10.4509C10.9514 10.2364 10.8981 10.0479 10.8165 9.8865C10.7348 9.72617 10.0883 8.14125 9.81939 7.49667C9.55597 6.86942 9.28929 6.95392 9.09118 6.94417L8.47074 6.93333C8.25521 6.93333 7.90471 7.0135 7.60864 7.33633C7.31257 7.65917 6.4766 8.437 6.4766 10.0219C6.4766 11.6068 7.63585 13.1376 7.79695 13.3521C7.95914 13.5666 10.0774 16.8188 13.3222 18.213C14.0939 18.5445 14.697 18.7428 15.1661 18.8912C15.9411 19.136 16.6465 19.1013 17.2038 19.019C17.8253 18.9269 19.1174 18.2401 19.3873 17.4883C19.6573 16.7353 19.6573 16.0907 19.5756 15.9564Z" fill="#0F1F3D"/>
</svg>
