<svg width="27" height="27" viewBox="0 0 27 27" fill="none" xmlns="http://www.w3.org/2000/svg">
<path d="M0.291992 26.4473L2.1283 19.7707C0.995165 17.8163 0.399754 15.6009 0.400843 13.3292C0.404108 6.22685 6.21128 0.447266 13.3464 0.447266C16.8089 0.448349 20.0592 1.7906 22.504 4.22593C24.9477 6.66127 26.2931 9.89827 26.292 13.3411C26.2887 20.4445 20.4816 26.2241 13.3464 26.2241C11.1803 26.223 9.04574 25.6824 7.15501 24.6554L0.291992 26.4473ZM7.47285 22.323C9.29718 23.4009 11.0388 24.0466 13.3421 24.0477C19.2722 24.0477 24.103 19.2442 24.1063 13.3389C24.1085 7.42177 19.3005 2.62477 13.3508 2.6226C7.41625 2.6226 2.58873 7.4261 2.58656 13.3303C2.58547 15.7407 3.29517 17.5455 4.48709 19.4338L3.39967 23.3858L7.47285 22.323ZM19.8676 16.4037C19.7871 16.2694 19.5716 16.1892 19.2472 16.0278C18.9239 15.8663 17.3336 15.0874 17.0364 14.9802C16.7404 14.8729 16.5248 14.8188 16.3082 15.1416C16.0927 15.4633 15.4723 16.1892 15.284 16.4037C15.0956 16.6182 14.9062 16.6453 14.583 16.4839C14.2597 16.3224 13.2169 15.9833 11.9814 14.8859C11.0203 14.0323 10.3704 12.9782 10.1821 12.6553C9.99382 12.3336 10.1625 12.1592 10.3236 11.9988C10.4695 11.8548 10.6469 11.6229 10.8091 11.4344C10.9735 11.2481 11.0268 11.1138 11.1357 10.8982C11.2434 10.6837 11.1901 10.4952 11.1085 10.3338C11.0268 10.1734 10.3802 8.58852 10.1114 7.94393C9.84797 7.31668 9.58128 7.40118 9.38317 7.39143L8.76273 7.3806C8.5472 7.3806 8.1967 7.46077 7.90063 7.7836C7.60456 8.10643 6.76859 8.88427 6.76859 10.4692C6.76859 12.0541 7.92784 13.5848 8.08894 13.7993C8.25113 14.0138 10.3694 17.266 13.6142 18.6603C14.3859 18.9918 14.989 19.19 15.4581 19.3384C16.2331 19.5833 16.9385 19.5486 17.4958 19.4663C18.1173 19.3742 19.4094 18.6873 19.6793 17.9355C19.9493 17.1826 19.9493 16.538 19.8676 16.4037Z" fill="white"/>
</svg>
