<svg width="24" height="17" viewBox="0 0 24 17" fill="none" xmlns="http://www.w3.org/2000/svg">
<path d="M23.7609 3.66815C23.7609 3.66815 23.5266 2.00167 22.8047 1.26993C21.8906 0.306859 20.8688 0.302138 20.4 0.245487C17.0438 -1.35066e-07 12.0047 0 12.0047 0H11.9953C11.9953 0 6.95625 -1.35066e-07 3.6 0.245487C3.13125 0.302138 2.10938 0.306859 1.19531 1.26993C0.473438 2.00167 0.24375 3.66815 0.24375 3.66815C0.24375 3.66815 0 5.62733 0 7.58178V9.4135C0 11.368 0.239062 13.3271 0.239062 13.3271C0.239062 13.3271 0.473437 14.9936 1.19062 15.7254C2.10469 16.6884 3.30469 16.6554 3.83906 16.7592C5.76094 16.9433 12 17 12 17C12 17 17.0438 16.9906 20.4 16.7498C20.8688 16.6931 21.8906 16.6884 22.8047 15.7254C23.5266 14.9936 23.7609 13.3271 23.7609 13.3271C23.7609 13.3271 24 11.3727 24 9.4135V7.58178C24 5.62733 23.7609 3.66815 23.7609 3.66815ZM9.52031 11.637V4.84365L16.0031 8.25215L9.52031 11.637Z" fill="#0F1F3D"/>
</svg>
