<svg width="29" height="22" viewBox="0 0 29 22" fill="none" xmlns="http://www.w3.org/2000/svg">
<path fill-rule="evenodd" clip-rule="evenodd" d="M25.7232 0.947266C26.5622 0.947266 27.3072 1.3387 27.776 1.94416L14.1608 13.0575L0.666989 2.14596C1.11816 1.42709 1.9319 0.947266 2.8608 0.947266H25.7232ZM0.291992 19.4473V4.11798L9.9742 11.9473L0.311951 19.7604C0.298781 19.6578 0.291992 19.5533 0.291992 19.4473ZM1.17749 21.3358C1.62832 21.7167 2.21689 21.9473 2.8608 21.9473H25.7232C26.2766 21.9473 26.7892 21.7769 27.2086 21.4872L16.9201 13.0893L15.0699 14.5995C14.5467 15.0266 13.7844 15.0283 13.2591 14.6035L11.3811 13.0849L1.17749 21.3358ZM18.3192 11.9473L28.2218 20.0302C28.2677 19.8432 28.292 19.648 28.292 19.4473V3.80702L18.3192 11.9473Z" fill="white"/>
</svg>
