<svg width="27" height="27" viewBox="0 0 27 27" fill="none" xmlns="http://www.w3.org/2000/svg">
<path d="M13.2917 0.947266C6.11224 0.947266 0.291992 6.78901 0.291992 13.995C0.291992 20.1139 4.48935 25.2484 10.1515 26.6586V17.9824H7.47097V13.995H10.1515V12.2769C10.1515 7.83596 12.154 5.77754 16.498 5.77754C17.3217 5.77754 18.7428 5.93986 19.3241 6.10165V9.71588C19.0173 9.68352 18.4843 9.66734 17.8224 9.66734C15.691 9.66734 14.8673 10.4779 14.8673 12.5848V13.995H19.1135L18.384 17.9824H14.8673V26.9473C21.3043 26.167 26.292 20.6661 26.292 13.995C26.2915 6.78901 20.4712 0.947266 13.2917 0.947266Z" fill="white"/>
</svg>
