<svg width="27" height="27" viewBox="0 0 27 27" fill="none" xmlns="http://www.w3.org/2000/svg">
<path d="M0.291992 26.9473L2.1283 20.2707C0.995165 18.3163 0.399754 16.1009 0.400843 13.8292C0.404108 6.72685 6.21127 0.947266 13.3464 0.947266C16.8089 0.948349 20.0592 2.2906 22.504 4.72593C24.9477 7.16127 26.2931 10.3983 26.292 13.8411C26.2887 20.9445 20.4816 26.7241 13.3464 26.7241C11.1803 26.723 9.04574 26.1824 7.15501 25.1554L0.291992 26.9473ZM7.47285 22.823C9.29718 23.9009 11.0388 24.5466 13.3421 24.5477C19.2722 24.5477 24.103 19.7442 24.1063 13.8389C24.1085 7.92177 19.3005 3.12477 13.3508 3.1226C7.41625 3.1226 2.58873 7.9261 2.58656 13.8303C2.58547 16.2407 3.29517 18.0455 4.48709 19.9338L3.39967 23.8858L7.47285 22.823ZM19.8676 16.9037C19.7871 16.7693 19.5716 16.6892 19.2472 16.5278C18.9239 16.3663 17.3336 15.5874 17.0364 15.4802C16.7404 15.3729 16.5248 15.3188 16.3082 15.6416C16.0927 15.9633 15.4723 16.6892 15.284 16.9037C15.0956 17.1182 14.9062 17.1453 14.583 16.9839C14.2597 16.8224 13.2169 16.4833 11.9814 15.3859C11.0203 14.5323 10.3704 13.4782 10.1821 13.1553C9.99382 12.8336 10.1625 12.6592 10.3236 12.4988C10.4695 12.3548 10.6469 12.1229 10.8091 11.9344C10.9735 11.7481 11.0268 11.6138 11.1357 11.3982C11.2434 11.1837 11.1901 10.9952 11.1085 10.8338C11.0268 10.6734 10.3802 9.08852 10.1114 8.44393C9.84797 7.81668 9.58128 7.90118 9.38317 7.89143L8.76273 7.8806C8.5472 7.8806 8.1967 7.96077 7.90063 8.2836C7.60456 8.60643 6.76859 9.38427 6.76859 10.9692C6.76859 12.5541 7.92784 14.0848 8.08894 14.2993C8.25113 14.5138 10.3694 17.766 13.6142 19.1603C14.3859 19.4918 14.989 19.69 15.4581 19.8384C16.2331 20.0833 16.9385 20.0486 17.4958 19.9663C18.1173 19.8742 19.4094 19.1873 19.6793 18.4355C19.9493 17.6826 19.9493 17.038 19.8676 16.9037Z" fill="white"/>
</svg>
