<svg width="27" height="27" viewBox="0 0 27 27" fill="none" xmlns="http://www.w3.org/2000/svg">
<path fill-rule="evenodd" clip-rule="evenodd" d="M2.11965 2.77492C0.291992 4.60257 0.291992 7.54412 0.291992 13.4273V14.4673C0.291992 20.3504 0.291992 23.2919 2.11965 25.1196C3.9473 26.9473 6.88884 26.9473 12.772 26.9473H13.812C19.6951 26.9473 22.6367 26.9473 24.4644 25.1196C26.292 23.2919 26.292 20.3504 26.292 14.4673V13.4273C26.292 7.54412 26.292 4.60257 24.4644 2.77492C22.6367 0.947266 19.6951 0.947266 13.812 0.947266H12.772C6.88884 0.947266 3.9473 0.947266 2.11965 2.77492ZM4.67956 8.85565C4.82039 15.6157 8.20038 19.6782 14.1262 19.6782H14.4621V15.8107C16.6396 16.0273 18.2862 17.6198 18.947 19.6782H22.0237C21.1787 16.6015 18.9578 14.9007 17.5711 14.2507C18.9578 13.449 20.9078 11.499 21.3736 8.85565H18.5786C17.9719 11.0007 16.1738 12.9507 14.4621 13.1348V8.85565H11.667V16.3523C9.93366 15.919 7.74538 13.8173 7.64788 8.85565H4.67956Z" fill="#0F1F3D"/>
</svg>
