<svg width="75" height="75" viewBox="0 0 75 75" fill="none" xmlns="http://www.w3.org/2000/svg">
<path d="M37.292 2.04246L45.0767 11.7175L45.4866 12.227L46.1176 12.0557L58.1024 8.80417L58.7135 21.2072L58.7457 21.8603L59.3568 22.0927L70.964 26.5066L64.168 36.9L63.8102 37.4473L64.168 37.9945L70.964 48.388L59.3568 52.8019L58.7457 53.0343L58.7135 53.6873L58.1024 66.0904L46.1176 62.8388L45.4866 62.6676L45.0767 63.177L37.292 72.8521L29.5073 63.177L29.0974 62.6676L28.4664 62.8388L16.4816 66.0904L15.8705 53.6873L15.8383 53.0343L15.2271 52.8019L3.62002 48.388L10.416 37.9945L10.7738 37.4473L10.416 36.9L3.62002 26.5066L15.2271 22.0927L15.8383 21.8603L15.8705 21.2072L16.4816 8.80418L28.4664 12.0557L29.0974 12.227L29.5073 11.7175L37.292 2.04246Z" fill="url(#paint0_radial_828_5386)" stroke="url(#paint1_linear_828_5386)" stroke-width="2"/>
<g filter="url(#filter0_d_828_5386)">
<line x1="24.5775" y1="36.0993" x2="31.9775" y2="43.4993" stroke="white" stroke-width="8"/>
</g>
<g filter="url(#filter1_d_828_5386)">
<line x1="52.8489" y1="28.2835" x2="31.9771" y2="49.1553" stroke="white" stroke-width="8"/>
</g>
<defs>
<filter id="filter0_d_828_5386" x="21.749" y="33.2705" width="13.0566" height="17.0576" filterUnits="userSpaceOnUse" color-interpolation-filters="sRGB">
<feFlood flood-opacity="0" result="BackgroundImageFix"/>
<feColorMatrix in="SourceAlpha" type="matrix" values="0 0 0 0 0 0 0 0 0 0 0 0 0 0 0 0 0 0 127 0" result="hardAlpha"/>
<feOffset dy="4"/>
<feComposite in2="hardAlpha" operator="out"/>
<feColorMatrix type="matrix" values="0 0 0 0 0 0 0 0 0 0 0 0 0 0 0 0 0 0 0.25 0"/>
<feBlend mode="normal" in2="BackgroundImageFix" result="effect1_dropShadow_828_5386"/>
<feBlend mode="normal" in="SourceGraphic" in2="effect1_dropShadow_828_5386" result="shape"/>
</filter>
<filter id="filter1_d_828_5386" x="29.1489" y="25.4551" width="26.5283" height="30.5283" filterUnits="userSpaceOnUse" color-interpolation-filters="sRGB">
<feFlood flood-opacity="0" result="BackgroundImageFix"/>
<feColorMatrix in="SourceAlpha" type="matrix" values="0 0 0 0 0 0 0 0 0 0 0 0 0 0 0 0 0 0 127 0" result="hardAlpha"/>
<feOffset dy="4"/>
<feComposite in2="hardAlpha" operator="out"/>
<feColorMatrix type="matrix" values="0 0 0 0 0 0 0 0 0 0 0 0 0 0 0 0 0 0 0.25 0"/>
<feBlend mode="normal" in2="BackgroundImageFix" result="effect1_dropShadow_828_5386"/>
<feBlend mode="normal" in="SourceGraphic" in2="effect1_dropShadow_828_5386" result="shape"/>
</filter>
<radialGradient id="paint0_radial_828_5386" cx="0" cy="0" r="1" gradientUnits="userSpaceOnUse" gradientTransform="translate(37.292 37.4473) rotate(90) scale(37)">
<stop stop-color="#E9CF57"/>
<stop offset="1" stop-color="#FFEB93"/>
</radialGradient>
<linearGradient id="paint1_linear_828_5386" x1="37.292" y1="0.447266" x2="37.292" y2="74.4473" gradientUnits="userSpaceOnUse">
<stop stop-color="#DCA623"/>
<stop offset="1" stop-color="#666666"/>
</linearGradient>
</defs>
</svg>
