<svg width="33" height="33" viewBox="0 0 33 33" fill="none" xmlns="http://www.w3.org/2000/svg">
<path d="M0.291992 32.4473L0.291992 0.447266L32.292 0.447266V32.4473L0.291992 32.4473ZM5.8675 29.0084C6.04714 29.0218 6.15291 29.0369 6.25784 29.0369C13.6574 29.0378 21.057 29.0369 28.4566 29.0436C28.784 29.0436 28.8889 28.9521 28.8889 28.6164C28.8805 21.2165 28.8831 13.8167 28.8814 6.416C28.8814 6.30436 28.8604 6.19273 28.8428 6.01394C28.6866 6.15664 28.5918 6.23638 28.5045 6.32367C27.0892 7.73716 25.6798 9.15737 24.2561 10.5616C24.0169 10.7975 23.927 11.0409 23.9279 11.3733C23.9371 15.43 23.9338 19.4866 23.9338 23.5433C23.9338 23.717 23.9338 23.8908 23.9338 24.088C23.6719 24.088 23.4914 24.088 23.3101 24.088C19.2674 24.088 15.2247 24.0905 11.1828 24.083C10.8823 24.083 10.6581 24.1594 10.4416 24.3776C9.01537 25.8196 7.57659 27.2499 6.14367 28.6852C6.06057 28.7683 5.98922 28.864 5.86666 29.0075L5.8675 29.0084ZM8.65106 8.80568C8.8903 8.80568 9.0691 8.80568 9.24706 8.80568C13.0656 8.80568 16.8842 8.80987 20.7036 8.7956C20.9294 8.7956 21.2157 8.71251 21.3701 8.56226C22.8601 7.10512 24.3283 5.62532 25.8007 4.15055C25.8695 4.08172 25.9173 3.99275 26.0021 3.87608C25.8636 3.86684 25.7948 3.85761 25.7251 3.85761C18.5211 3.85761 11.3171 3.85929 4.11393 3.85006C3.76388 3.85006 3.69757 3.981 3.69757 4.29324C3.70428 11.469 3.70261 18.6456 3.70428 25.8213C3.70428 25.9212 3.72947 26.0211 3.75045 26.1797C3.90239 26.0387 4.00564 25.9481 4.10302 25.8507C5.50822 24.4464 6.90756 23.0371 8.32116 21.6413C8.55872 21.4071 8.65861 21.1695 8.65778 20.8338C8.6477 17.0289 8.65106 13.2241 8.65106 9.41925C8.65106 9.23879 8.65106 9.05832 8.65106 8.80568Z" fill="#F4F4F4"/>
</svg>
