<svg width="53" height="54" viewBox="0 0 53 54" fill="none" xmlns="http://www.w3.org/2000/svg">
<path d="M0.703125 53.386L0.703125 0.362305L52.2445 0.362305L52.2445 53.386L0.703125 53.386ZM9.68343 47.6878C9.97276 47.71 10.1431 47.7351 10.3121 47.7351C22.2304 47.7365 34.1487 47.7351 46.067 47.7462C46.5943 47.7462 46.7633 47.5946 46.7633 47.0383C46.7498 34.7768 46.7539 22.5153 46.7512 10.2524C46.7512 10.0675 46.7174 9.88248 46.689 9.58623C46.4375 9.82267 46.2847 9.9548 46.1441 10.0994C43.8646 12.4416 41.5945 14.7949 39.3014 17.1217C38.9161 17.5125 38.7714 17.9159 38.7727 18.4666C38.7876 25.1885 38.7822 31.9103 38.7822 38.6321C38.7822 38.92 38.7822 39.2079 38.7822 39.5348C38.3604 39.5348 38.0697 39.5348 37.7776 39.5348C31.2662 39.5348 24.7547 39.539 18.2446 39.5264C17.7606 39.5264 17.3996 39.653 17.0507 40.0146C14.7536 42.4041 12.4362 44.774 10.1283 47.1523C9.9944 47.29 9.87947 47.4486 9.68208 47.6864L9.68343 47.6878ZM14.1668 14.2121C14.5522 14.2121 14.8401 14.2121 15.1268 14.2121C21.2772 14.2121 27.4277 14.2191 33.5795 14.1954C33.9432 14.1954 34.4043 14.0577 34.653 13.8088C37.0529 11.3943 39.4177 8.94228 41.7892 6.49861C41.9 6.38456 41.9771 6.23713 42.1136 6.04381C41.8906 6.02851 41.7797 6.01321 41.6675 6.01321C30.0642 6.01321 18.4609 6.01599 6.859 6.00069C6.2952 6.00069 6.18838 6.21766 6.18838 6.73505C6.1992 18.6252 6.1965 30.5167 6.1992 42.4068C6.1992 42.5723 6.23976 42.7379 6.27356 43.0007C6.51828 42.7671 6.68459 42.6168 6.84142 42.4555C9.10475 40.1287 11.3586 37.7935 13.6355 35.4805C14.0181 35.0925 14.179 34.6989 14.1776 34.1426C14.1614 27.838 14.1668 21.5334 14.1668 15.2288C14.1668 14.9298 14.1668 14.6307 14.1668 14.2121Z" fill="#0F1F3D"/>
</svg>
