<svg width="24" height="25" viewBox="0 0 24 25" fill="none" xmlns="http://www.w3.org/2000/svg">
<path d="M5.66904 9.03014C7.51378 14.0626 9.42356 16.0705 14.282 18.2091L12.1765 21.1662C6.59747 18.4952 3.81867 13.9927 2.50995 10.4791L5.66904 9.03014Z" fill="white"/>
<path d="M7.21682 2.08243C8.20325 2.07857 8.95328 2.89938 8.88604 3.82881C8.78022 5.29142 8.89288 6.34667 9.19623 7.65469C9.36286 8.37319 8.98589 9.10293 8.38682 9.57296C7.57938 10.2065 6.9625 11.0137 6.47222 11.7086C5.79268 12.6718 3.4541 12.6026 2.93692 11.5533C1.87404 9.39689 1.15373 5.424 2.70584 2.73984C2.94964 2.31822 3.44053 2.0972 3.94919 2.09521L7.21682 2.08243Z" fill="white"/>
<path d="M22.1904 18.0395C22.3131 17.1152 21.5405 16.3133 20.5554 16.2645C19.0052 16.1879 17.9095 15.9553 16.571 15.5136C15.8358 15.271 15.0234 15.5367 14.4572 16.0418C13.6942 16.7226 12.7715 17.2039 11.982 17.58C10.8878 18.1013 10.6793 20.3021 11.7201 20.9132C13.8591 22.169 17.9487 23.3221 20.9569 22.1898C21.4294 22.0119 21.7208 21.5782 21.784 21.1016L22.1904 18.0395Z" fill="white"/>
</svg>
