<svg width="269" height="33" viewBox="0 0 269 33" fill="none" xmlns="http://www.w3.org/2000/svg">
<path d="M49.66 7.64726H55.324V24.4473H49.66V7.64726ZM69.1626 15.5913H74.0826V22.6953C73.0906 23.3833 71.9386 23.9113 70.6266 24.2793C69.3146 24.6473 68.0266 24.8313 66.7626 24.8313C64.9706 24.8313 63.3626 24.4633 61.9386 23.7273C60.5146 22.9753 59.3946 21.9353 58.5786 20.6073C57.7786 19.2633 57.3786 17.7433 57.3786 16.0473C57.3786 14.3513 57.7786 12.8393 58.5786 11.5113C59.3946 10.1673 60.5226 9.12726 61.9626 8.39126C63.4186 7.63927 65.0586 7.26327 66.8826 7.26327C68.5306 7.26327 70.0026 7.54326 71.2986 8.10326C72.6106 8.64726 73.6986 9.44727 74.5626 10.5033L70.9386 13.6953C69.8826 12.4633 68.6266 11.8473 67.1706 11.8473C65.9226 11.8473 64.9306 12.2233 64.1946 12.9753C63.4586 13.7273 63.0906 14.7513 63.0906 16.0473C63.0906 17.3113 63.4506 18.3273 64.1706 19.0953C64.9066 19.8633 65.8826 20.2473 67.0986 20.2473C67.8186 20.2473 68.5066 20.1113 69.1626 19.8393V15.5913ZM93.0559 7.64726V24.4473H88.3999L82.0159 16.8153V24.4473H76.4959V7.64726H81.1519L87.5359 15.2793V7.64726H93.0559ZM107.233 21.5193H100.849L99.721 24.4473H93.961L101.305 7.64726H106.873L114.217 24.4473H108.361L107.233 21.5193ZM105.673 17.4393L104.041 13.2153L102.409 17.4393H105.673ZM117.925 12.0393H113.005V7.64726H128.509V12.0393H123.589V24.4473H117.925V12.0393ZM143.948 20.1753V24.4473H129.98V7.64726H143.636V11.9193H135.548V13.8873H142.652V17.9673H135.548V20.1753H143.948ZM163.846 7.64726L156.742 24.4473H151.174L144.07 7.64726H150.166L154.174 17.4633L158.278 7.64726H163.846ZM185.925 20.1753V24.4473H171.957V7.64726H185.613V11.9193H177.525V13.8873H184.629V17.9673H177.525V20.1753H185.925ZM194.369 24.8313C192.977 24.8313 191.617 24.6793 190.289 24.3753C188.977 24.0553 187.897 23.6313 187.049 23.1033L188.873 18.9753C189.673 19.4393 190.569 19.8153 191.561 20.1033C192.553 20.3753 193.505 20.5113 194.417 20.5113C195.201 20.5113 195.761 20.4393 196.097 20.2953C196.433 20.1353 196.601 19.9033 196.601 19.5993C196.601 19.2473 196.377 18.9833 195.929 18.8073C195.497 18.6313 194.777 18.4393 193.769 18.2313C192.473 17.9593 191.393 17.6713 190.529 17.3673C189.665 17.0473 188.913 16.5353 188.273 15.8313C187.633 15.1113 187.313 14.1433 187.313 12.9273C187.313 11.8713 187.609 10.9113 188.201 10.0473C188.793 9.18326 189.673 8.50326 190.841 8.00726C192.025 7.51126 193.457 7.26327 195.137 7.26327C196.289 7.26327 197.417 7.39126 198.521 7.64726C199.641 7.88726 200.625 8.24726 201.473 8.72726L199.769 12.8313C198.121 11.9993 196.561 11.5833 195.089 11.5833C193.633 11.5833 192.905 11.9353 192.905 12.6393C192.905 12.9753 193.121 13.2313 193.553 13.4073C193.985 13.5673 194.697 13.7433 195.689 13.9353C196.969 14.1753 198.049 14.4553 198.929 14.7753C199.809 15.0793 200.569 15.5833 201.209 16.2873C201.865 16.9913 202.193 17.9513 202.193 19.1673C202.193 20.2233 201.897 21.1833 201.305 22.0473C200.713 22.8953 199.825 23.5753 198.641 24.0873C197.473 24.5833 196.049 24.8313 194.369 24.8313ZM207.292 12.0393H202.372V7.64726H217.876V12.0393H212.956V24.4473H207.292V12.0393ZM229.952 21.5193H223.568L222.44 24.4473H216.68L224.024 7.64726H229.592L236.936 24.4473H231.08L229.952 21.5193ZM228.392 17.4393L226.76 13.2153L225.128 17.4393H228.392ZM240.644 12.0393H235.724V7.64726H251.228V12.0393H246.308V24.4473H240.644V12.0393ZM266.667 20.1753V24.4473H252.699V7.64726H266.355V11.9193H258.267V13.8873H265.371V17.9673H258.267V20.1753H266.667Z" fill="#F4F4F4"/>
<path d="M0.291992 32.4473L0.291992 0.447266L32.292 0.447266V32.4473L0.291992 32.4473ZM5.8675 29.0084C6.04714 29.0218 6.15291 29.0369 6.25784 29.0369C13.6574 29.0378 21.057 29.0369 28.4566 29.0436C28.784 29.0436 28.8889 28.9521 28.8889 28.6164C28.8805 21.2165 28.8831 13.8167 28.8814 6.416C28.8814 6.30436 28.8604 6.19273 28.8428 6.01394C28.6866 6.15664 28.5918 6.23638 28.5045 6.32367C27.0892 7.73716 25.6798 9.15737 24.2561 10.5616C24.0169 10.7975 23.927 11.0409 23.9279 11.3733C23.9371 15.43 23.9338 19.4866 23.9338 23.5433C23.9338 23.717 23.9338 23.8908 23.9338 24.088C23.6719 24.088 23.4914 24.088 23.3101 24.088C19.2674 24.088 15.2247 24.0905 11.1828 24.083C10.8823 24.083 10.6581 24.1594 10.4416 24.3776C9.01537 25.8196 7.57659 27.2499 6.14367 28.6852C6.06057 28.7683 5.98922 28.864 5.86666 29.0075L5.8675 29.0084ZM8.65106 8.80568C8.8903 8.80568 9.0691 8.80568 9.24706 8.80568C13.0656 8.80568 16.8842 8.80987 20.7036 8.7956C20.9294 8.7956 21.2157 8.71251 21.3701 8.56226C22.8601 7.10512 24.3283 5.62532 25.8007 4.15055C25.8695 4.08172 25.9173 3.99275 26.0021 3.87608C25.8636 3.86684 25.7948 3.85761 25.7251 3.85761C18.5211 3.85761 11.3171 3.85929 4.11393 3.85006C3.76388 3.85006 3.69757 3.981 3.69757 4.29324C3.70428 11.469 3.70261 18.6456 3.70428 25.8213C3.70428 25.9212 3.72947 26.0211 3.75045 26.1797C3.90239 26.0387 4.00564 25.9481 4.10302 25.8507C5.50822 24.4464 6.90756 23.0371 8.32116 21.6413C8.55872 21.4071 8.65861 21.1695 8.65777 20.8338C8.6477 17.0289 8.65106 13.2241 8.65106 9.41925C8.65106 9.23879 8.65106 9.05832 8.65106 8.80568Z" fill="#F4F4F4"/>
</svg>
