<svg width="19" height="23" viewBox="0 0 19 23" fill="none" xmlns="http://www.w3.org/2000/svg">
<rect x="4.37036" y="13.8975" width="3.62679" height="7.7769" rx="1.8134" transform="rotate(30 4.37036 13.8975)" fill="white"/>
<path d="M18.3463 8.98366C18.3463 13.791 14.2933 17.688 9.29375 17.688C4.29417 17.688 0.241211 13.791 0.241211 8.98366C0.241211 4.17637 4.29417 0.279297 9.29375 0.279297C14.2933 0.279297 18.3463 4.17637 18.3463 8.98366ZM3.46392 8.98366C3.46392 12.0796 6.07402 14.5893 9.29375 14.5893C12.5135 14.5893 15.1236 12.0796 15.1236 8.98366C15.1236 5.88777 12.5135 3.37805 9.29375 3.37805C6.07402 3.37805 3.46392 5.88777 3.46392 8.98366Z" fill="white"/>
</svg>
